<svg xmlns="http://www.w3.org/2000/svg" xmlns:xlink="http://www.w3.org/1999/xlink" version="1.1" x="0px" y="0px" viewBox="0 0 134 167.5" style="enable-background:new 0 0 134 134;" xml:space="preserve"><g><path d="M46.6372,120.35227c-0.0022-0.01172-0.00439-0.0249-0.00757-0.04395c-0.00146-0.00635,0-0.01318-0.00439-0.01758   C46.63109,120.32005,46.63427,120.33665,46.6372,120.35227z"/><path d="M17.47521,59.07102c1.22009,15.52979,22.27002,20.04981,23.51001,20.29981   c3.54004,25.62012,4.95007,35.8501,5.45007,39.51025c0,0,0.02002,0.1499,0.06995,0.50977   c0.03003,0.16992,0.04993,0.31982,0.05994,0.4502c0.01001,0.0498,0.02002,0.07959,0.01001,0.06006   c0.01001,0.04004,0.01001,0.08984,0.02002,0.13965l0.01001,0.07031c0.01001,0.04004,0.01001,0.08008,0.01001,0.10986   c0.00586,0.03711,0.01013,0.0625,0.0144,0.0874c0.00171,0.0083,0.00562,0.01709,0.00562,0.02246   c0,0.04004,0.01001,0.08008,0.02002,0.12012c0.01001,0.06982,0.02002,0.16016,0.03003,0.24023   c0.36987,2.69971,3.18994,4.63965,6.38989,4.42969l0.41003-0.02002c-0.06995,0.45996-1.04993,2.16992,0.08997,4.10009   c2.21997,3.72998,8.80005,3.24023,10.14014-0.77002l1.35986-4.08007l11.8501-0.77002l1.07996,3.22998   c1.32996,4.01025,7.78992,4.14989,9.87,0.4502c1.18994-2.09033,0.06006-3.72998-0.12-4.70996   c6.16003-0.99023,11.71997-2.81006,16.51001-5.3999c6.78992-3.66992,10.38-9.6001,10.68005-17.63037   c0.01001-0.27979,0.02002-0.5498,0.02002-0.82959c0-3.8501-1.06006-7.28027-3.15015-10.20996   c-2.01001-2.81055-4.63989-5.22021-7.80994-7.16016c2.65002-2.58984,4.52002-5.56006,5.33997-7.58008   c1.46997-0.91016,16.51001-22.74024,6.51001-38.3501c2.79004-1.69971,3.41003-9.08008-0.53003-13.37012   c-5.18994-5.67969-12.92993,0.3501-7.25,6.03027c2.38013,2.36963,1.6001,2.33008,1.46997,3.70996   c-0.27991,2.27002,1.62012,4.48975,4.33008,4.27002c7.43994,11.00977,1.12,24.96973-3.01001,31.92969   c1.05005-8.57959-2.09998-17.65967-10.51001-22.62989c-5.03003-2.95996-10.98999-4.91016-17.75-5.7998l0.51001-3.47021   c10.07007-2.23975,14.34009-14.89014,6.96997-23.37988v-0.01025l-0.62988-0.66992H89.4453   c-1.47009-1.48975-3.17004-2.60986-5.07007-3.34961c-14.75-5.7002-25.93994,13.76953-13.79004,24.18994l-0.77002,6.15967   l-14.08996,0.2002l-1.38-5.18018c5.44995-6.23975,4.03003-16.88965-3.6499-22.28955l-0.3501-0.25   c-0.01001,0-0.01001,0-0.02002-0.01025l-0.33997-0.22998l-0.01001,0.00977c-8.95996-5.58008-19.71997-0.27979-20.64002,9.94043   C28.5952,29.4509,34.85521,37.1511,42.10521,38.18088l0.3501,1.20996c-1.86011,0.05029-3.52002,0.81006-4.66016,2.14014   c-3.04993,3.54004-0.66992,5.27002,2.90015,35.72998c-3.6001-0.8501-19.61011-5.31006-21.16004-17.68018   c0.09998-0.02979,3.21997,0.16016,4.47998-3.33984c0.34998-0.99023,0.38-1.54004,3.88-2.37988   c9.17993-2.2002,5.54004-13.20996-3.5-10.58008C17.42528,45.29074,10.86522,55.79074,17.47521,59.07102z M111.61522,31.551   c0.93994-3.89014-3.58997-4.88037-3.58997-7.47998c0-1.01025,1.12-2.33008,2.31995-2.3501   c5.17004-0.08008,7.31006,9.27002,4.73999,11.75C113.79515,34.76096,111.13524,33.96067,111.61522,31.551z M83.65526,10.52073   c3.10999,1.2002,4.78003,3.37012,4.88,3.46045h0.02991c6.8501,7.88965,2.04004,19.43945-7.20996,20.34961   c-4.34998,0.54004-8.32996-1.87012-8.6499-2.34961C61.48522,23.99094,69.91527,5.19114,83.65526,10.52073z M31.32518,21.37082   c0.55005-6.10986,5.26001-10.37012,10.97998-10.37012c4.28003,0,7.1001,2.29004,7.23999,2.37012h0.01001   c7.22009,5.1001,7.92004,15.07031,2.57007,20.07031C44.14525,41.2009,30.29515,32.92063,31.32518,21.37082z M39.30516,42.83078   c1.8501-2.13965,4.01001-0.85986,4.96008-2.10986c0.64001-0.87988,0.06995-1.81982-0.01001-2.31006   c2.80994,0.22998,6.35999-1.06006,8.44006-2.81006l1.15991,4.35986c0.02002,0.08008,0.03003,0.15039,0.04004,0.22021   l0.02002,0.18994c0.07996,0.49023,0.52002,0.86035,1.01001,0.83984c17.02002-0.69971,16.43994,0.87012,16.83996-1.72949   l0.66003-5.26025c2.75,1.69971,5.81995,2.3999,8.62988,2.16016c-0.27991,2.71973-0.83984,3.50977-0.1499,4.42969   c1.08997,1.3999,8.90991,0.62012,18.42993,6.24023c10.48999,6.19971,14.09009,22.72998,2.87012,33.22998   c-0.73999,0.67969-0.68005,1.8999,0.25,2.43994c3.16992,1.8501,5.7699,4.18018,7.72998,6.91992   c1.97998,2.77002,2.90991,6.06982,2.76001,9.81006c-0.27002,7.37012-3.42004,12.58008-9.63013,15.93994   c-11.63989,6.30029-18.66992,3.87012-17.65991,7.12988l0.67993,2.2002c0.95007,3.08008-5.37988,4.62011-6.42993,1.45996   c-1.09009-2.44971-0.84009-4.72998-2.79004-4.62012l-12.42993,0.81006c-0.65002,0.04004-1.20007,0.43994-1.40002,1.02002   l-1.47009,4.41016c-0.45996,1.36962-2.3999,2.21972-4.22998,1.85009c-1.57996-0.32031-2.93994-1.59033-2.47998-3.03027   l0.52002-1.67969c0.14001-0.44043,0.05005-0.91016-0.23999-1.28027c-0.30005-0.37988-0.78003-0.6001-1.29004-0.6001h-0.10999   l-1.03992,0.07031c-2.14014,0.12988-4.05005-1.08008-4.28003-2.71045C38.40526,42.52073,37.13524,45.4011,39.30516,42.83078z    M29.88524,45.73117c1.33008,0.84961,1.64001,3.13965,0.91992,4.2998c-1.57996,2.52002-6.20996,1.4502-8.10986,4.31006   c-0.57007,0.85986-0.87012,3.48975-3.28003,3.22998c-5.73999-0.37988-1.29004-10.39014,5.54004-12.37012   C27.73522,44.41086,28.93529,45.12082,29.88524,45.73117z"/><path d="M46.65526,120.52073v-0.06982h-0.01001C46.65526,120.47092,46.65526,120.50071,46.65526,120.52073z"/><path d="M65.48521,77.50071l6.13-0.21973c4.84009-0.18018,8.60999-0.91016,11.53003-2.26025   c3.15991-1.45996,4.70996-3.96973,4.60999-7.47998c-0.21997-8-7.52002-9.96973-15.48999-9.75977   c-8.83996,0.41992-9.47009-0.47021-9.84997,1.9502l1.34998,16.28955c0.05994,0.8501,0.78991,1.49023,1.66003,1.49023   C65.4453,77.51096,65.46532,77.51096,65.48521,77.50071z M72.31517,59.78098c6.71008-0.16992,13.25,1.1001,13.44006,7.81983   c0.07996,2.7002-1.02002,4.47998-3.45007,5.60986c-2.62988,1.20996-6.25,1.91016-10.76001,2.07031l-5.81995,0.20996l-1.27991-15.5   L72.31517,59.78098z"/><path d="M89.7252,92.84104c-2.53992-1.6001-5.95996-2.32031-10.16003-2.13037l-12.87988,0.6001   c-0.45007,0.02002-0.87012,0.22021-1.16003,0.54004c-0.27002,0.31006-0.40002,0.70996-0.37,1.10986l1.33997,16.30029   c0.06995,0.7998,0.75,1.39014,1.58997,1.39014h0.1001c4.11987-1.18018,25.78992,2.09961,25.58997-10.41992   C93.7252,96.99094,92.36522,94.50071,89.7252,92.84104z M91.77525,100.41087c0,2.27002-0.96008,3.97998-2.92004,5.20996   c-2.13989,1.3501-5.06995,2.14014-8.71997,2.3501l-11.67993,0.66016l-1.27002-15.34033l12.46997-0.58008   c3.78003-0.16992,6.81006,0.44043,9.01001,1.82031c2.05005,1.2998,3.06995,3.17969,3.10999,5.73975V100.41087z"/><path d="M84.70531,23.42063c-0.0271-1.70654-0.74536-3.40527-2.17004-4.66992c-5.39172-4.89892-13.93518,1.70166-9.80005,8.06006   C76.06517,32.2009,84.77525,29.93088,84.70531,23.42063z M80.85521,19.9509c0.66003,0.47998,1.16003,1.12988,1.47998,1.85986   c-0.46997,1.3999-3.08997,1.3501-3.15991-0.35986C79.13524,20.4509,80.00523,19.94114,80.85521,19.9509z M78.12523,19.07102   c-2.38,2.47998-0.03003,5.7998,2.70996,5.7998c0.6001,0,1.20996-0.16016,1.79004-0.52002   c-0.15002,0.81006-0.56006,1.59033-1.27002,2.26025c-0.03003,0.02002-0.05005,0.0498-0.07996,0.05957   c-2.04004,1.87012-5.46008,1.36035-6.90002-0.98975C72.56517,22.78098,74.64525,19.08078,78.12523,19.07102z"/><path d="M45.35521,18.9011c-3.26001-1.86035-7.12-0.65039-8.76001,2.37988c-2.71997,5.08008,2.12012,11.06006,7.43005,9.79004   C49.75524,29.76096,50.58519,21.92063,45.35521,18.9011z M43.23522,20.49094c1.80005-0.51465,2.77722,2.37793,0.88,2.87012   C42.27526,23.82102,41.42528,21.00071,43.23522,20.49094z M38.36522,22.23117c0.48999-0.92041,1.29004-1.6001,2.23999-1.94043   c-2.03369,3.92285,3.85303,7.28662,6.09009,3.41992c0.32996,1.20996,0.17993,2.51025-0.52002,3.57031   C43.22521,31.94114,35.60521,27.34104,38.36522,22.23117z"/><path d="M46.21264,51.34006c5.46191-4.03711,8.01245-3.46338,12.96655-0.1748c11.68847,7.75439,15.76428-0.28223,20.93408-1.43604   c5.24097-1.16895,11.05713,2.79248,11.41687,2.89502c-0.31067,0.55908-0.83923,0.97607-1.53259,1.17627   c-1.27087,0.36719-0.71545,2.28955,0.55566,1.92139c1.89648-0.54785,3.15332-2.09033,3.27979-4.0249   c0.12256-1.88477-0.93359-4.0376-2.56885-5.23486c-0.4458-0.32617-1.07129-0.22949-1.39795,0.21631   c-0.93079,1.27246,1.13501,1.32764,1.83081,3.78125c-3.94165-2.34375-8.68091-3.42822-12.01929-2.68262   c-6.01306,1.34277-8.73047,8.79834-19.39257,1.72168c-1.98096-1.31445-4.02979-2.67383-6.56201-2.93164   c-2.32141-0.23486-4.97681,0.55762-7.26733,2.0918c0.11475-0.50146,0.25366-1.00049,0.43823-1.47656   c0.19922-0.51514-0.05615-1.09424-0.57129-1.29395c-2.5658-0.99658-3.03516,9.45508,0.06689,9.45508   c0.95398,0,1.36182-1.2124,0.61182-1.7915C46.68102,53.30442,46.3004,52.56858,46.21264,51.34006z"/><path d="M43.05272,4.77268c1.58984,0.08594,3.45898,0.979,3.79199,2.46338c0.28784,1.29199,2.24097,0.85254,1.95117-0.4375   c-0.5542-2.4707-3.25391-3.89404-5.63477-4.02295C38.89061,2.54368,29.99901,7.17893,26.2368,9.22776   c-0.9054,0.49268-0.55737,1.87842,0.479,1.87842C27.21044,11.10618,38.60363,4.53342,43.05272,4.77268z"/><path d="M92.2744,11.00266c4.43604,0,9.75977-3.16699,14.1748-5.79395c0.63672-0.37842,1.24951-0.74316,1.83203-1.08105   c0.47754-0.27734,0.64014-0.88916,0.36279-1.36719c-0.27686-0.47754-0.88965-0.64014-1.3667-0.36279   c-0.58838,0.34131-1.20752,0.70996-1.85059,1.09229c-6.81946,4.05762-15.14526,8.96484-18.04639,2.02734   c-0.50916-1.22217-2.35522-0.44824-1.84473,0.77148C86.47508,8.53586,88.99437,11.00266,92.2744,11.00266z"/></g><text x="0" y="149" fill="#000000" font-size="5px" font-weight="bold" font-family="'Helvetica Neue', Helvetica, Arial-Unicode, Arial, Sans-serif">Created by Vectors Point</text><text x="0" y="154" fill="#000000" font-size="5px" font-weight="bold" font-family="'Helvetica Neue', Helvetica, Arial-Unicode, Arial, Sans-serif">from the Noun Project</text></svg>